<?xml version="1.0" encoding="UTF-8"?>
<svg width="14px" height="12px" viewBox="0 0 14 12" version="1.1" xmlns="http://www.w3.org/2000/svg" xmlns:xlink="http://www.w3.org/1999/xlink">
    <!-- Generator: Sketch 46.2 (44496) - http://www.bohemiancoding.com/sketch -->
    <title>Delete</title>
    <desc>Created with Sketch.</desc>
    <defs></defs>
    <g id="Page-1" stroke="none" stroke-width="1" fill="none" fill-rule="evenodd">
        <g id="Form-Creation-4" transform="translate(-603.000000, -143.000000)" fill-rule="nonzero" fill="#9B9B9B">
            <g id="Content" transform="translate(-2.000000, 99.000000)">
                <g id="Group-2" transform="translate(257.000000, 26.000000)">
                    <g id="Field-1">
                        <g id="Delete" transform="translate(348.380952, 18.000000)">
                            <g id="Shape">
                                <path d="M11.2261905,12 L1.91666667,12 L1.91666667,1.53191489 L11.2261905,1.53191489 L11.2261905,12 Z M2.46428571,11.4893617 L10.6785714,11.4893617 L10.6785714,2.04255319 L2.46428571,2.04255319 L2.46428571,11.4893617 Z"></path>
                                <path d="M9.58333333,2.04255319 L3.55952381,2.04255319 L3.55952381,0 L9.58333333,0 L9.58333333,2.04255319 Z M4.10714286,1.53191489 L9.03571429,1.53191489 L9.03571429,0.510638298 L4.10714286,0.510638298 L4.10714286,1.53191489 Z"></path>
                                <path d="M4.38095238,10.212766 C4.22973156,10.212766 4.10714286,10.0984557 4.10714286,9.95744681 L4.10714286,3.57446809 C4.10714286,3.43345921 4.22973156,3.31914894 4.38095238,3.31914894 C4.53217321,3.31914894 4.6547619,3.43345921 4.6547619,3.57446809 L4.6547619,9.95744681 C4.6547619,10.0984557 4.53217321,10.212766 4.38095238,10.212766 Z"></path>
                                <path d="M6.57142857,10.212766 C6.42020775,10.212766 6.29761905,10.0984557 6.29761905,9.95744681 L6.29761905,3.57446809 C6.29761905,3.43345921 6.42020775,3.31914894 6.57142857,3.31914894 C6.7226494,3.31914894 6.8452381,3.43345921 6.8452381,3.57446809 L6.8452381,9.95744681 C6.8452381,10.0984557 6.7226494,10.212766 6.57142857,10.212766 Z"></path>
                                <path d="M8.76190476,10.212766 C8.61068394,10.212766 8.48809524,10.0984557 8.48809524,9.95744681 L8.48809524,3.57446809 C8.48809524,3.43345921 8.61068394,3.31914894 8.76190476,3.31914894 C8.91312559,3.31914894 9.03571429,3.43345921 9.03571429,3.57446809 L9.03571429,9.95744681 C9.03571429,10.0984557 8.91312559,10.212766 8.76190476,10.212766 Z"></path>
                                <polygon points="0 1.53191489 13.1428571 1.53191489 13.1428571 2.04255319 0 2.04255319"></polygon>
                            </g>
                        </g>
                    </g>
                </g>
            </g>
        </g>
    </g>
</svg>