<?xml version="1.0" encoding="UTF-8"?>
<svg width="14px" height="14px" viewBox="0 0 14 14" version="1.1" xmlns="http://www.w3.org/2000/svg" xmlns:xlink="http://www.w3.org/1999/xlink">
    <!-- Generator: Sketch 46.2 (44496) - http://www.bohemiancoding.com/sketch -->
    <title>Settings</title>
    <desc>Created with Sketch.</desc>
    <defs></defs>
    <g id="Page-1" stroke="none" stroke-width="1" fill="none" fill-rule="evenodd">
        <g id="Form-Creation-4" transform="translate(-581.000000, -142.000000)" fill-rule="nonzero" fill="#9B9B9B">
            <g id="Content" transform="translate(-2.000000, 99.000000)">
                <g id="Group-2" transform="translate(257.000000, 26.000000)">
                    <g id="Field-1">
                        <g id="Settings" transform="translate(326.000000, 17.000000)">
                            <g id="Settings-2">
                                <g id="Page-1">
                                    <g id="Icons">
                                        <path d="M6.18212903,13.9939333 C6.07099557,13.9938148 5.97410561,13.9157945 5.94683871,13.8044667 L5.52864516,12.0764 C5.19709319,11.9695767 4.87655098,11.8292078 4.57167742,11.6573333 L3.08451613,12.5799333 C2.98906221,12.6386728 2.86725302,12.6233228 2.78825806,12.5426 L1.63258065,11.3484 C1.55400397,11.2670014 1.53910923,11.1407933 1.59645161,11.0422667 L2.48929032,9.5074 C2.3246764,9.19283967 2.19137023,8.86183384 2.09141935,8.51946667 L0.410064516,8.08453333 C0.302224413,8.05661444 0.226392283,7.95674402 0.225806452,7.84186667 L0.225806452,6.15486667 C0.225806452,6.03913333 0.302580645,5.9388 0.410064516,5.91173333 L2.08148387,5.48053333 C2.184,5.14033333 2.3203871,4.809 2.48793548,4.4898 L1.59509677,2.95306667 C1.53777829,2.85421488 1.5526545,2.72777951 1.63122581,2.646 L2.78509677,1.45366667 C2.86362876,1.37118682 2.98688774,1.35570139 3.08225806,1.41633333 L4.56941935,2.338 C4.87382922,2.16881936 5.19379732,2.03140705 5.52458065,1.9278 L5.94458065,0.1904 C5.97164057,0.0787974063 6.06853078,0.000392584856 6.17987097,0 L7.81245161,0 C7.92354839,0 8.02154839,0.0784 8.04774194,0.1904 L8.46593548,1.9194 C8.79693842,2.02636432 9.11712468,2.166241 9.422,2.33706667 L10.9109677,1.41353333 C11.0069485,1.35669355 11.1277383,1.37229555 11.2072258,1.4518 L12.3610968,2.64413333 C12.4404257,2.72545039 12.4557179,2.85225148 12.398129,2.9512 L11.5052903,4.4898 C11.6692258,4.80526667 11.8024516,5.13613333 11.9013548,5.474 L13.5845161,5.90986667 C13.6929032,5.9374 13.7687742,6.0382 13.7687742,6.153 L13.7687742,7.83813333 C13.7688798,7.95335829 13.692798,8.0537503 13.5845161,8.08126667 L11.9013548,8.51713333 C11.8024516,8.8578 11.6692258,9.18866667 11.5061935,9.50226667 L12.3999355,11.0399333 C12.4575244,11.1388819 12.4422322,11.2656829 12.3629032,11.347 L11.2090323,12.5412 C11.1298241,12.6213049 11.0086273,12.6369595 10.9127742,12.5794667 L9.42380645,11.6559333 C9.11670968,11.8290667 8.7956129,11.9686 8.46683871,12.075 L8.05045161,13.8030667 C8.02281786,13.9145394 7.92561796,13.9925099 7.81425806,13.9925333 L6.18212903,13.9939333 L6.18212903,13.9939333 Z M4.56716129,11.1155333 C4.60870968,11.1155333 4.65116129,11.1262667 4.68909677,11.1491333 C5.04541935,11.3614667 5.41845161,11.5248 5.79690323,11.6330667 C5.88093419,11.6584203 5.94570444,11.727835 5.96716129,11.8155333 L6.37270968,13.4918 L7.62503226,13.4908667 L8.02967742,11.8136667 C8.05094952,11.7265822 8.11546853,11.6577791 8.19903226,11.6330667 C8.58654813,11.52018 8.95875002,11.357274 9.30683871,11.1482 C9.3836129,11.1015333 9.47709677,11.1034 9.55296774,11.1500667 L10.9994839,12.0479333 L11.886,11.13 L11.0170968,9.63713333 C10.9714665,9.558847 10.9704297,9.46116844 11.0143871,9.38186667 C11.2144516,9.02346667 11.368,8.64173333 11.4723226,8.24366667 C11.4952198,8.15578903 11.5624997,8.08769622 11.648,8.06586667 L13.2832903,7.64213333 L13.2832903,6.349 L11.648,5.9262 C11.5625972,5.90419009 11.4953923,5.83617323 11.4723226,5.7484 C11.3675521,5.34997858 11.2136453,4.96712921 11.0143871,4.60926667 C10.9709734,4.53015128 10.972008,4.43304191 11.0170968,4.35493333 L11.8841935,2.86113333 L10.9985806,1.946 L9.55206452,2.84293333 C9.47675487,2.89085291 9.3819177,2.89157216 9.30593548,2.8448 C8.95747245,2.63673318 8.58535727,2.47417867 8.19812903,2.36086667 C8.11421537,2.33676018 8.04944919,2.26769352 8.02877419,2.18026667 L7.62322581,0.502133333 L6.37090323,0.502133333 L5.96264516,2.19006667 C5.94117248,2.27821633 5.87542221,2.34758487 5.79058065,2.3716 C5.40670968,2.47893333 5.03548387,2.63853333 4.6863871,2.84573333 C4.61029225,2.89243266 4.51533951,2.89135247 4.44025806,2.84293333 L2.99554839,1.94693333 L2.10993548,2.863 L2.97703226,4.35493333 C3.02276958,4.43327684 3.02346237,4.53117369 2.97883871,4.6102 C2.7769116,4.97075802 2.61928672,5.35593013 2.5096129,5.7568 C2.48598174,5.843853 2.4188792,5.91105328 2.33393548,5.93273333 L0.711741935,6.35086667 L0.711741935,7.64493333 L2.34522581,8.06773333 C2.43062862,8.08974324 2.4978335,8.1577601 2.52090323,8.24553333 C2.62477419,8.64126667 2.77832258,9.02486667 2.98064516,9.3856 C3.02499217,9.46479653 3.02395297,9.56269438 2.97793548,9.64086667 L2.11083871,11.1318667 L2.99735484,12.0488667 L4.44206452,11.1519333 C4.47977287,11.1282436 4.52303096,11.1156566 4.56716129,11.1155333 L4.56716129,11.1155333 Z M6.99909677,5.56126667 C6.23229678,5.56229504 5.61093068,6.20437334 5.60993548,6.99673333 C5.61093068,7.78909333 6.23229678,8.43117163 6.99909677,8.4322 C7.76529424,8.43040038 8.38570705,7.78847238 8.38645161,6.99673333 C8.38570705,6.20499428 7.76529424,5.56306629 6.99909677,5.56126667 Z M6.99909677,8.9348 C5.96392219,8.93377097 5.12499584,8.0668804 5.124,6.9972 C5.12499584,5.9275196 5.96392219,5.06062903 6.99909677,5.0596 C8.03377209,5.06114417 8.87189002,5.92803452 8.8723871,6.9972 C8.87189002,8.06636548 8.03377209,8.93325583 6.99909677,8.9348 L6.99909677,8.9348 Z" id="Settings-2"></path>
                                    </g>
                                </g>
                            </g>
                        </g>
                    </g>
                </g>
            </g>
        </g>
    </g>
</svg>