<?xml version="1.0" encoding="UTF-8"?>
<svg width="19px" height="19px" viewBox="0 0 19 19" version="1.1" xmlns="http://www.w3.org/2000/svg" xmlns:xlink="http://www.w3.org/1999/xlink">
    <!-- Generator: Sketch 46.2 (44496) - http://www.bohemiancoding.com/sketch -->
    <title>Admin - Blue</title>
    <desc>Created with Sketch.</desc>
    <defs></defs>
    <g id="Symbols" stroke="none" stroke-width="1" fill="none" fill-rule="evenodd">
        <g id="MENU-Admin" transform="translate(-16.000000, -2.000000)" fill="#007AFF">
            <g id="MENU--Survey" transform="translate(16.000000, 0.000000)">
                <g id="Admin" transform="translate(0.000000, 2.000000)">
                    <g id="Admin---Blue">
                        <g id="Group">
                            <path d="M9.26295928,18.799867 C4.14619339,18.799867 0.553635702,18.0514539 0.403052508,18.0193073 C0.159056689,17.9680736 -0.0109236622,17.7500795 0.000306270903,17.5044593 C0.197340552,13.4374118 2.77103704,12.1751554 4.6903347,11.5789364 C6.12164072,11.1344091 6.89395385,10.4045808 6.90161062,10.3970464 C7.10272851,10.2031622 7.42533386,10.206176 7.6228786,10.4040785 C7.81940242,10.6014787 7.81838152,10.9179218 7.61828453,11.1123083 C7.58102157,11.1489755 6.67905376,12.0144224 4.99762651,12.5368047 C3.20492082,13.093845 1.35402366,14.078837 1.05234682,17.1192024 C2.15594298,17.3155981 5.26459264,17.7952856 9.26295928,17.7952856 C13.2613259,17.7952856 16.3699756,17.3155981 17.4735717,17.1192024 C17.1713844,14.078837 15.3209977,13.093845 13.5282921,12.5373069 C11.8463543,12.0144224 10.944897,11.1489755 10.9071236,11.1123083 C10.7070266,10.9174196 10.7054952,10.5989673 10.9035504,10.401567 C11.1010952,10.2051714 11.4237005,10.2036645 11.6243079,10.3970464 C11.6452365,10.417138 12.4160182,11.1379252 13.8355839,11.5794386 C15.7543711,12.1751554 18.328578,13.4369095 18.5256123,17.5044593 C18.5368422,17.7500795 18.3668619,17.9680736 18.1228661,18.0193073 C17.9722829,18.0514539 14.3792147,18.799867 9.26295928,18.799867" id="Fill-3"></path>
                            <path d="M5.44330171,7.18976983 C5.45657345,7.19780648 5.4708661,7.20634542 5.48515874,7.21488436 C5.67861986,7.33342496 5.8465584,7.43589226 5.90934394,7.65087266 C6.10790957,8.33097422 7.45345974,10.8670398 9.26301033,10.8670398 C11.0725609,10.8670398 12.4176006,8.33097422 12.6166767,7.65037037 C12.6794622,7.43589226 12.8468903,7.33342496 13.0408619,7.21488436 C13.0551546,7.20634542 13.0689367,7.19780648 13.0822085,7.18976983 C13.5661165,6.31377491 13.4681098,5.95614395 13.4247214,5.86522934 C13.3757181,5.76175747 13.2751592,5.72860628 13.2741383,5.72860628 C13.0219752,5.68289783 12.8433172,5.45988077 12.8570994,5.20773086 C12.8576098,5.19718276 12.908655,4.18607165 12.6595546,3.26085224 C12.6355634,3.17747199 12.0112812,1.10702986 9.26301033,1.10702986 C6.48768549,1.10702986 5.87106008,3.2412629 5.86544511,3.2628614 C5.61685523,4.18607165 5.66790038,5.19718276 5.66841083,5.20773086 C5.68219302,5.45988077 5.50353499,5.68289783 5.25137195,5.72860628 C5.24677788,5.73061544 5.14519804,5.76175747 5.09619469,5.87527516 C5.05637947,5.96769664 4.96858181,6.32934592 5.44330171,7.18976983 M9.26301033,11.8716211 C6.80875949,11.8716211 5.32385606,9.00002539 4.98338491,8.09087928 C4.97113407,8.08334492 4.95837278,8.07631286 4.9466324,8.0682762 C4.7929865,7.97434785 4.68170807,7.9070409 4.60462989,7.77343158 C4.0467064,6.80149914 3.90224862,6.01591654 4.17585063,5.44029144 C4.29784854,5.18362091 4.47650656,5.01886957 4.64291375,4.91389082 C4.64546601,4.48845063 4.68221852,3.73551692 4.8792528,3.00367942 C5.15438616,1.99859579 6.42387906,0.102448529 9.26301033,0.102448529 C12.1021416,0.102448529 13.3716345,1.99859579 13.6457469,3.00167025 C13.8438021,3.73501463 13.8805546,4.48794834 13.8831069,4.91389082 C14.0490036,5.01886957 14.2276617,5.18362091 14.3496596,5.44029144 C14.6232616,6.01591654 14.4793143,6.80149914 13.9208803,7.77292929 C13.8443126,7.9070409 13.7330342,7.97434785 13.5788778,8.0682762 C13.5671374,8.07631286 13.5548866,8.08334492 13.5426357,8.09087928 C13.2011437,9.00052768 11.7167507,11.8716211 9.26301033,11.8716211" id="Fill-1"></path>
                        </g>
                    </g>
                </g>
            </g>
        </g>
    </g>
</svg>