<?xml version="1.0" encoding="UTF-8"?>
<svg width="25px" height="25px" viewBox="0 0 25 25" version="1.1" xmlns="http://www.w3.org/2000/svg" xmlns:xlink="http://www.w3.org/1999/xlink">
    <!-- Generator: Sketch 46.2 (44496) - http://www.bohemiancoding.com/sketch -->
    <title>Blood Group</title>
    <desc>Created with Sketch.</desc>
    <defs></defs>
    <g id="Page-1" stroke="none" stroke-width="1" fill="none" fill-rule="evenodd">
        <g id="Form-Creation-1.1" transform="translate(-194.000000, -188.000000)">
            <g id="Fields" transform="translate(24.000000, 144.000000)">
                <g id="Single-Line" transform="translate(166.000000, 41.000000)">
                    <g id="Blood-Group" transform="translate(4.000000, 3.000000)">
                        <rect id="Rectangle-5" fill-opacity="0.7" fill="#D0021B" x="0" y="0" width="25" height="25" rx="1"></rect>
                        <g id="Drop" transform="translate(5.000000, 4.000000)" fill-rule="nonzero" fill="#FFFFFF">
                            <g id="Layer_1">
                                <path d="M6.5,15.8985366 C9.12240904,15.9041218 11.4891836,14.2947773 12.4942353,11.822614 C13.499287,9.35045077 12.9441395,6.50366874 11.0882353,4.61268293 L6.76955882,0.212682927 C6.69784155,0.139404081 6.60052412,0.0982295975 6.49904412,0.0982295975 C6.39756411,0.0982295975 6.30024669,0.139404081 6.22852941,0.212682927 L1.91176471,4.61268293 C0.0558605172,6.50366874 -0.499287024,9.35045077 0.505764706,11.822614 C1.51081644,14.2947773 3.87759096,15.9041218 6.5,15.8985366 Z M2.45852941,5.16682927 L6.5,1.04 L10.5414706,5.16487805 C12.1757861,6.83285586 12.6647161,9.34140522 11.7802699,11.5207757 C10.8958237,13.7001463 8.81218096,15.1211402 6.50095588,15.1211402 C4.1897308,15.1211402 2.10608811,13.7001463 1.22164186,11.5207757 C0.337195617,9.34140522 0.826125643,6.83285586 2.46044118,5.16487805 L2.45852941,5.16682927 Z" id="Shape"></path>
                                <path d="M7.37367647,13.3307317 C9.17797662,13.3285794 10.6398291,11.8356844 10.6408824,9.99414634 C10.6408824,9.77862059 10.4696971,9.60390244 10.2585294,9.60390244 C10.0473617,9.60390244 9.87617647,9.77862059 9.87617647,9.99414634 C9.87512395,11.4046333 8.75564131,12.5480925 7.37367647,12.5502439 C7.16250877,12.5502439 6.99132353,12.724962 6.99132353,12.9404878 C6.99132353,13.1560136 7.16250877,13.3307317 7.37367647,13.3307317 L7.37367647,13.3307317 Z" id="Shape"></path>
                            </g>
                        </g>
                    </g>
                </g>
            </g>
        </g>
    </g>
</svg>