<?xml version="1.0" encoding="UTF-8"?>
<svg width="25px" height="25px" viewBox="0 0 25 25" version="1.1" xmlns="http://www.w3.org/2000/svg" xmlns:xlink="http://www.w3.org/1999/xlink">
    <!-- Generator: Sketch 46.2 (44496) - http://www.bohemiancoding.com/sketch -->
    <title>Country</title>
    <desc>Created with Sketch.</desc>
    <defs></defs>
    <g id="Page-1" stroke="none" stroke-width="1" fill="none" fill-rule="evenodd">
        <g id="Form-Creation-1.1" transform="translate(-194.000000, -276.000000)">
            <g id="Fields" transform="translate(24.000000, 144.000000)">
                <g id="Single-Line" transform="translate(166.000000, 129.000000)">
                    <g id="Country" transform="translate(4.000000, 3.000000)">
                        <rect id="Rectangle-5" fill-opacity="0.7" fill="#F5A623" x="0" y="0" width="25" height="25" rx="1"></rect>
                        <g id="Globe" transform="translate(5.000000, 5.000000)" fill-rule="nonzero" fill="#FFFFFF">
                            <g id="Layer_1">
                                <path d="M7.5,0 C3.358,0 0,3.358 0,7.5 C0,11.642 3.358,15 7.5,15 C11.642,15 15,11.642 15,7.5 C15,3.358 11.642,0 7.5,0 Z M12.969,4 L11.479,4 C11.189,3.088 10.791,2.289 10.311,1.648 C11.3968205,2.17206847 12.3166809,2.98603075 12.969,4 Z M8,4 L8,1.082 C8.945,1.361 9.866,2.409 10.433,4 L8,4 Z M10.724,5 C10.865,5.612 10.956,6.282 10.985,7 L8,7 L8,5 L10.724,5 Z M7,1.082 L7,4 L4.567,4 C5.134,2.409 6.055,1.361 7,1.082 Z M7,5 L7,7 L4.015,7 C4.044,6.282 4.135,5.612 4.276,5 L7,5 Z M3.015,7 L1.025,7 C1.079,6.297 1.24,5.623 1.501,5 L3.261,5 C3.12297834,5.65857507 3.04068732,6.3276078 3.015,7 L3.015,7 Z M3.015,8 C3.04068732,8.6723922 3.12297834,9.34142493 3.261,10 L1.501,10 C1.23638309,9.36308365 1.07567387,8.6878348 1.025,8 L3.015,8 L3.015,8 Z M4.015,8 L7,8 L7,10 L4.276,10 C4.12725462,9.34285399 4.0398792,8.67331054 4.015,8 L4.015,8 Z M7,11 L7,13.918 C6.055,13.639 5.134,12.591 4.567,11 L7,11 Z M8,13.918 L8,11 L10.433,11 C9.866,12.591 8.945,13.639 8,13.918 Z M8,10 L8,8 L10.985,8 C10.9601208,8.67331054 10.8727454,9.34285399 10.724,10 L8,10 Z M11.985,8 L13.975,8 C13.9243261,8.6878348 13.7636169,9.36308365 13.499,10 L11.739,10 C11.8770217,9.34142493 11.9593127,8.6723922 11.985,8 L11.985,8 Z M11.985,7 C11.9593127,6.3276078 11.8770217,5.65857507 11.739,5 L13.499,5 C13.76,5.623 13.921,6.297 13.975,7 L11.985,7 L11.985,7 Z M4.689,1.648 C4.21,2.289 3.811,3.088 3.521,4 L2.031,4 C2.6833191,2.98603075 3.60317953,2.17206847 4.689,1.648 Z M2.031,11 L3.521,11 C3.811,11.912 4.209,12.711 4.689,13.352 C3.60317953,12.8279315 2.6833191,12.0139692 2.031,11 L2.031,11 Z M10.311,13.352 C10.79,12.711 11.189,11.912 11.479,11 L12.969,11 C12.3166809,12.0139692 11.3968205,12.8279315 10.311,13.352 Z" id="Shape"></path>
                            </g>
                        </g>
                    </g>
                </g>
            </g>
        </g>
    </g>
</svg>