<?xml version="1.0" encoding="UTF-8"?>
<svg width="25px" height="25px" viewBox="0 0 25 25" version="1.1" xmlns="http://www.w3.org/2000/svg" xmlns:xlink="http://www.w3.org/1999/xlink">
    <!-- Generator: Sketch 46.2 (44496) - http://www.bohemiancoding.com/sketch -->
    <title>Dropdown</title>
    <desc>Created with Sketch.</desc>
    <defs></defs>
    <g id="Page-1" stroke="none" stroke-width="1" fill="none" fill-rule="evenodd">
        <g id="Form-Creation-1.1" transform="translate(-29.000000, -296.000000)">
            <g id="Fields" transform="translate(24.000000, 144.000000)">
                <g id="DropDown" transform="translate(0.000000, 149.000000)">
                    <g id="Dropdown" transform="translate(5.000000, 3.000000)">
                        <g id="Group-12">
                            <rect id="Rectangle-5" fill-opacity="0.5" fill="#4A90E2" x="0" y="0" width="25" height="25" rx="1"></rect>
                            <g id="Layer_1" transform="translate(5.000000, 5.000000)" fill-rule="nonzero" fill="#FFFFFF">
                                <path d="M7,13.4965385 C5.1435203,13.499519 3.36228007,12.7912905 2.05016,11.5284615 C-0.67928,8.904 -0.67928,4.634 2.05016,2.00953846 C3.37232,0.738230769 5.13016,0.0376923077 7,0.0376923077 C8.86984,0.0376923077 10.62768,0.737692308 11.94984,2.00953846 C14.67928,4.634 14.67928,8.904 11.94984,11.5284615 C10.6377199,12.7912905 8.8564797,13.499519 7,13.4965385 L7,13.4965385 Z M7,1.11461538 C5.43954311,1.11047608 3.94224753,1.7069124 2.842,2.77092308 C0.54992,4.97538462 0.54992,8.56207692 2.842,10.7670769 C5.13464,12.971 8.8648,12.971 11.158,10.7670769 C13.45008,8.56261538 13.45008,4.97592308 11.158,2.77092308 C10.0576107,1.70711585 8.56040752,1.11071636 7,1.11461538 Z M11.55392,11.1477692 L11.55952,11.1477692 L11.55392,11.1477692 Z" id="Shape"></path>
                                <path d="M7,8.54484615 C6.85145409,8.5449937 6.70897097,8.48821594 6.60408,8.38707692 L4.03032,5.91230769 C3.81165942,5.70205714 3.81165942,5.36117363 4.03032,5.15092308 C4.24898058,4.94067252 4.60349942,4.94067252 4.82216,5.15092308 L7,7.245 L9.17784,5.15092308 C9.31928859,5.01491481 9.52545441,4.96179754 9.71867678,5.01158001 C9.91189915,5.06136249 10.062823,5.20648158 10.1145968,5.39227233 C10.1663706,5.57806307 10.1111286,5.77629943 9.96968,5.91230769 L7.39592,8.38707692 C7.29102903,8.48821594 7.14854591,8.5449937 7,8.54484615 L7,8.54484615 Z" id="Shape"></path>
                            </g>
                        </g>
                    </g>
                </g>
            </g>
        </g>
    </g>
</svg>