<?xml version="1.0" encoding="UTF-8"?>
<svg width="25px" height="25px" viewBox="0 0 25 25" version="1.1" xmlns="http://www.w3.org/2000/svg" xmlns:xlink="http://www.w3.org/1999/xlink">
    <!-- Generator: Sketch 46.2 (44496) - http://www.bohemiancoding.com/sketch -->
    <title>Image</title>
    <desc>Created with Sketch.</desc>
    <defs></defs>
    <g id="Page-1" stroke="none" stroke-width="1" fill="none" fill-rule="evenodd">
        <g id="Form-Creation-1.1" transform="translate(-30.000000, -416.000000)">
            <g id="Content" transform="translate(-2.000000, 99.000000)">
                <g id="Field-Header">
                    <g id="Advanced-Fields" transform="translate(28.000000, 314.000000)">
                        <g id="Single-Line">
                            <g id="Image" transform="translate(4.000000, 3.000000)">
                                <rect id="Rectangle-5" fill-opacity="0.5" fill="#8B572A" x="0" y="0" width="25" height="25" rx="1"></rect>
                                <g id="Layer_1" transform="translate(5.000000, 5.000000)" fill-rule="nonzero" fill="#FFFFFF">
                                    <path d="M12.9545455,0 L2.04545455,0 C0.915852273,0 0,0.915852273 0,2.04545455 L0,12.9545455 C0,14.0841477 0.915852273,15 2.04545455,15 L12.9545455,15 C14.0841477,15 15,14.0841477 15,12.9545455 L15,2.04545455 C15,0.915852273 14.0841477,0 12.9545455,0 Z M13.6363636,12.9545455 C13.6363636,13.33125 13.33125,13.6363636 12.9545455,13.6363636 L4.37335227,13.6363636 L10.2272727,7.78244318 L13.6363636,11.1913636 L13.6363636,12.9545455 Z M13.6363636,9.26318182 L10.2272727,5.85409091 L2.44482955,13.6363636 L2.04545455,13.6363636 C1.66875,13.6363636 1.36363636,13.33125 1.36363636,12.9545455 L1.36363636,2.04545455 C1.36363636,1.66875 1.66875,1.36363636 2.04545455,1.36363636 L12.9545455,1.36363636 C13.33125,1.36363636 13.6363636,1.66875 13.6363636,2.04545455 L13.6363636,9.26318182 Z M4.77272727,2.72727273 C3.643125,2.72727273 2.72727273,3.643125 2.72727273,4.77272727 C2.72727273,5.90232955 3.643125,6.81818182 4.77272727,6.81818182 C5.90232955,6.81818182 6.81818182,5.90232955 6.81818182,4.77272727 C6.81818182,3.643125 5.90232955,2.72727273 4.77272727,2.72727273 Z M4.77272727,5.45454545 C4.39616949,5.45454545 4.09090909,5.14928506 4.09090909,4.77272727 C4.09090909,4.39616949 4.39616949,4.09090909 4.77272727,4.09090909 C5.14928506,4.09090909 5.45454545,4.39616949 5.45454545,4.77272727 C5.45454545,5.14928506 5.14928506,5.45454545 4.77272727,5.45454545 Z" id="Shape"></path>
                                </g>
                            </g>
                        </g>
                    </g>
                </g>
            </g>
        </g>
    </g>
</svg>