<?xml version="1.0" encoding="UTF-8"?>
<svg width="25px" height="25px" viewBox="0 0 25 25" version="1.1" xmlns="http://www.w3.org/2000/svg" xmlns:xlink="http://www.w3.org/1999/xlink">
    <!-- Generator: Sketch 46.2 (44496) - http://www.bohemiancoding.com/sketch -->
    <title>Multi Line</title>
    <desc>Created with Sketch.</desc>
    <defs></defs>
    <g id="Page-1" stroke="none" stroke-width="1" fill="none" fill-rule="evenodd">
        <g id="Form-Creation-1.1" transform="translate(-30.000000, -602.000000)">
            <g id="Content" transform="translate(-2.000000, 99.000000)">
                <g id="Field-Header">
                    <g id="Advanced-Fields" transform="translate(28.000000, 314.000000)">
                        <g id="Date" transform="translate(0.000000, 186.000000)">
                            <g id="Multi-Line" transform="translate(4.000000, 3.000000)">
                                <rect id="Rectangle-5" fill-opacity="0.5" fill="#D0021B" x="0" y="0" width="25" height="25" rx="1"></rect>
                                <g id="Format,-Wrap,-Text,-Word" transform="translate(4.000000, 4.000000)">
                                    <g id="Group">
                                        <path d="M2.66666667,12.6666667 L6.66666667,12.6666667 L6.66666667,11.3333333 L2.66666667,11.3333333 L2.66666667,12.6666667 Z M13.3333333,3.33333333 L2.66666667,3.33333333 L2.66666667,4.66666667 L13.3333333,4.66666667 L13.3333333,3.33333333 Z M11.3333333,7.33333333 L2.66666667,7.33333333 L2.66666667,8.66666667 L11.5,8.66666667 C12.2366667,8.66666667 12.8333333,9.26333333 12.8333333,10 C12.8333333,10.7366667 12.2366667,11.3333333 11.5,11.3333333 L10,11.3333333 L10,10 L8,12 L10,14 L10,12.6666667 L11.3333333,12.6666667 C12.8033333,12.6666667 14,11.47 14,10 C14,8.53 12.8033333,7.33333333 11.3333333,7.33333333 Z" id="Shape" fill="#FFFFFF" fill-rule="nonzero"></path>
                                        <polygon id="Shape" points="0 0 16 0 16 16 0 16"></polygon>
                                    </g>
                                </g>
                            </g>
                        </g>
                    </g>
                </g>
            </g>
        </g>
    </g>
</svg>