<?xml version="1.0" encoding="UTF-8"?>
<svg width="25px" height="25px" viewBox="0 0 25 25" version="1.1" xmlns="http://www.w3.org/2000/svg" xmlns:xlink="http://www.w3.org/1999/xlink">
    <!-- Generator: Sketch 46.2 (44496) - http://www.bohemiancoding.com/sketch -->
    <title>Number </title>
    <desc>Created with Sketch.</desc>
    <defs></defs>
    <g id="Page-1" stroke="none" stroke-width="1" fill="none" fill-rule="evenodd">
        <g id="Form-Creation-1.1" transform="translate(-28.000000, -185.000000)">
            <g id="Fields" transform="translate(24.000000, 144.000000)">
                <g id="Number" transform="translate(0.000000, 38.000000)">
                    <g id="Number-" transform="translate(4.000000, 3.000000)">
                        <g id="Group-9">
                            <rect id="Rectangle-5" fill-opacity="0.5" fill="#417505" x="0" y="0" width="25" height="25" rx="1"></rect>
                            <g id="Group" transform="translate(5.000000, 5.000000)">
                                <polygon id="Shape" points="0 0 15 0 15 15 0 15"></polygon>
                                <path d="M1.875,3.125 L0.625,3.125 L0.625,13.125 C0.625,13.815625 1.184375,14.375 1.875,14.375 L11.875,14.375 L11.875,13.125 L1.875,13.125 L1.875,3.125 Z M8.75,9.375 L10,9.375 L10,3.125 L7.5,3.125 L7.5,4.375 L8.75,4.375 L8.75,9.375 Z M13.125,0.625 L4.375,0.625 C3.684375,0.625 3.125,1.184375 3.125,1.875 L3.125,10.625 C3.125,11.315625 3.684375,11.875 4.375,11.875 L13.125,11.875 C13.815625,11.875 14.375,11.315625 14.375,10.625 L14.375,1.875 C14.375,1.184375 13.815625,0.625 13.125,0.625 Z M13.125,10.625 L4.375,10.625 L4.375,1.875 L13.125,1.875 L13.125,10.625 Z" id="Shape" fill="#FFFFFF" fill-rule="nonzero"></path>
                            </g>
                        </g>
                    </g>
                </g>
            </g>
        </g>
    </g>
</svg>