<?xml version="1.0" encoding="UTF-8"?>
<svg width="25px" height="25px" viewBox="0 0 25 25" version="1.1" xmlns="http://www.w3.org/2000/svg" xmlns:xlink="http://www.w3.org/1999/xlink">
    <!-- Generator: Sketch 46.2 (44496) - http://www.bohemiancoding.com/sketch -->
    <title>RelationShip</title>
    <desc>Created with Sketch.</desc>
    <defs></defs>
    <g id="Page-1" stroke="none" stroke-width="1" fill="none" fill-rule="evenodd">
        <g id="Form-Creation-1.1" transform="translate(-194.000000, -317.000000)">
            <g id="Fields" transform="translate(24.000000, 144.000000)">
                <g id="Single-Line" transform="translate(166.000000, 170.000000)">
                    <g id="RelationShip" transform="translate(4.000000, 3.000000)">
                        <rect id="Rectangle-5" fill-opacity="0.7" fill="#4A90E2" x="0" y="0" width="25" height="25" rx="1"></rect>
                        <g transform="translate(5.000000, 5.000000)" id="svg2" fill-rule="nonzero" fill="#FFFFFF">
                            <g>
                                <g id="layer1" transform="translate(0.000000, 0.597937)">
                                    <path d="M4.6875,0.332238281 L4.6875,0.3395625 C2.09408625,0.3395625 0,2.53053806 0,5.19735056 C0,6.82110056 0.901559794,8.37951853 2.23937991,9.77498719 C3.5772,11.1704559 5.37254372,12.4194497 7.2839355,13.4132925 L7.5,13.5249872 L7.7160645,13.4132925 C9.62719875,12.4195434 11.4006891,11.1839419 12.7276613,9.79512938 C14.0546325,8.40622266 14.9521266,6.84826172 15,5.21016797 L15,5.19918169 L15,5.19002634 C15,2.52321384 12.9059137,0.332238281 10.3125,0.332238281 C9.24173569,0.332238281 8.28618441,0.757338844 7.5,1.38143259 C6.71381559,0.757338844 5.75826431,0.332238281 4.6875,0.332238281 Z M4.6875,1.2770625 C5.64330769,1.2770625 6.51456384,1.65774319 7.18139644,2.27864944 L7.5,2.57711138 L7.81860356,2.27864944 C8.48543625,1.65774319 9.35669231,1.2770625 10.3125,1.2770625 C12.3758953,1.2770625 14.0556441,3.01319531 14.0606691,5.18819531 C14.0205066,6.49516406 13.2780741,7.86171675 12.0501713,9.14693531 C10.8714234,10.3805916 9.25110159,11.5133587 7.5,12.4483275 C5.74698891,11.5122337 4.10610281,10.3672941 2.91687009,9.12679406 C1.67656519,7.83304397 0.9375,6.46663181 0.9375,5.19735056 C0.9375,3.01775681 2.62101375,1.2770625 4.6875,1.2770625 Z" id="path4739"></path>
                                </g>
                            </g>
                        </g>
                    </g>
                </g>
            </g>
        </g>
    </g>
</svg>