<?xml version="1.0" encoding="UTF-8"?>
<svg width="25px" height="25px" viewBox="0 0 25 25" version="1.1" xmlns="http://www.w3.org/2000/svg" xmlns:xlink="http://www.w3.org/1999/xlink">
    <!-- Generator: Sketch 46.2 (44496) - http://www.bohemiancoding.com/sketch -->
    <title>Text Field</title>
    <desc>Created with Sketch.</desc>
    <defs></defs>
    <g id="Page-1" stroke="none" stroke-width="1" fill="none" fill-rule="evenodd">
        <g id="Form-Creation-1.1" transform="translate(-28.000000, -147.000000)">
            <g id="Fields" transform="translate(24.000000, 144.000000)">
                <g id="Single-Line">
                    <g id="Text-Field" transform="translate(4.000000, 3.000000)">
                        <rect id="Rectangle-5" fill-opacity="0.5" fill="#D0021B" x="0" y="0" width="25" height="25" rx="1"></rect>
                        <g id="Group" transform="translate(5.000000, 5.000000)" fill-rule="nonzero" fill="#FFFFFF">
                            <path d="M12.5,15 L2.5,15 C1.125,15 0,13.875 0,12.5 L0,2.5 C0,1.125 1.125,0 2.5,0 L12.5,0 C13.875,0 15,1.125 15,2.5 L15,12.5 C15,13.875 13.875,15 12.5,15 Z M2.5,1.25 C1.8125,1.25 1.25,1.8125 1.25,2.5 L1.25,12.5 C1.25,13.1875 1.8125,13.75 2.5,13.75 L12.5,13.75 C13.1875,13.75 13.75,13.1875 13.75,12.5 L13.75,2.5 C13.75,1.8125 13.1875,1.25 12.5,1.25 L2.5,1.25 Z" id="Shape"></path>
                            <path d="M10.625,5 L4.375,5 C4,5 3.75,4.75 3.75,4.375 C3.75,4 4,3.75 4.375,3.75 L10.625,3.75 C11,3.75 11.25,4 11.25,4.375 C11.25,4.75 11,5 10.625,5 Z" id="Shape"></path>
                            <path d="M4.375,5.625 C4,5.625 3.75,5.375 3.75,5 L3.75,4.375 C3.75,4 4,3.75 4.375,3.75 C4.75,3.75 5,4 5,4.375 L5,5 C5,5.375 4.75,5.625 4.375,5.625 Z M10.625,5.625 C10.25,5.625 10,5.375 10,5 L10,4.375 C10,4 10.25,3.75 10.625,3.75 C11,3.75 11.25,4 11.25,4.375 L11.25,5 C11.25,5.375 11,5.625 10.625,5.625 Z M7.5,11.25 C7.125,11.25 6.875,11 6.875,10.625 L6.875,4.375 C6.875,4 7.125,3.75 7.5,3.75 C7.875,3.75 8.125,4 8.125,4.375 L8.125,10.625 C8.125,11 7.875,11.25 7.5,11.25 Z" id="Shape"></path>
                            <path d="M8.125,11.25 L6.875,11.25 C6.5,11.25 6.25,11 6.25,10.625 C6.25,10.25 6.5,10 6.875,10 L8.125,10 C8.5,10 8.75,10.25 8.75,10.625 C8.75,11 8.5,11.25 8.125,11.25 Z" id="Shape"></path>
                        </g>
                    </g>
                </g>
            </g>
        </g>
    </g>
</svg>