<?xml version="1.0" encoding="UTF-8"?>
<svg width="25px" height="25px" viewBox="0 0 25 25" version="1.1" xmlns="http://www.w3.org/2000/svg" xmlns:xlink="http://www.w3.org/1999/xlink">
    <!-- Generator: Sketch 46.2 (44496) - http://www.bohemiancoding.com/sketch -->
    <title>Video</title>
    <desc>Created with Sketch.</desc>
    <defs></defs>
    <g id="Page-1" stroke="none" stroke-width="1" fill="none" fill-rule="evenodd">
        <g id="Form-Creation-1.1" transform="translate(-30.000000, -454.000000)">
            <g id="Content" transform="translate(-2.000000, 99.000000)">
                <g id="Field-Header">
                    <g id="Advanced-Fields" transform="translate(28.000000, 314.000000)">
                        <g id="Number" transform="translate(0.000000, 38.000000)">
                            <g id="Video" transform="translate(4.000000, 3.000000)">
                                <g id="Group-9">
                                    <rect id="Rectangle-5" fill-opacity="0.5" fill="#417505" x="0" y="0" width="25" height="25" rx="1"></rect>
                                    <g id="Video" transform="translate(5.000000, 5.000000)" fill-rule="nonzero" fill="#FFFFFF">
                                        <g id="Layer_1">
                                            <path d="M3.39857143,5.28911765 C4.866,5.28911765 6.05957143,4.14255882 6.05957143,2.73288235 C6.05957143,1.32320588 4.866,0.176441176 3.39857143,0.176441176 C1.93157143,0.176441176 0.738,1.32320588 0.738,2.73288235 C0.738,4.14255882 1.93135714,5.28911765 3.39857143,5.28911765 Z M3.39857143,0.999970588 C4.39328571,0.999970588 5.20242857,1.77738235 5.20242857,2.73288235 C5.20242857,3.68838235 4.39328571,4.46558824 3.39857143,4.46558824 C2.40407143,4.46558824 1.59514286,3.68838235 1.59514286,2.73288235 C1.59514286,1.77717647 2.40407143,0.999970588 3.39857143,0.999970588 Z" id="Shape"></path>
                                            <path d="M2.41778571,2.30814706 C2.48939538,2.30827705 2.55632023,2.27396293 2.59607143,2.21673529 C2.77516146,1.95927521 3.0762666,1.80477743 3.39857143,1.80497059 C3.51691816,1.80497059 3.61285714,1.71279392 3.61285714,1.59908824 C3.61285714,1.48538255 3.51691816,1.39320588 3.39857143,1.39320588 C2.93325878,1.39291836 2.49853897,1.61592908 2.23992857,1.98758824 C2.19602071,2.05074422 2.19182568,2.13198426 2.22901151,2.19900573 C2.26619735,2.2660272 2.33873639,2.30796623 2.41778571,2.30814706 L2.41778571,2.30814706 Z" id="Shape"></path>
                                            <path d="M9.39835714,5.28911765 C10.866,5.28911765 12.0593571,4.14255882 12.0593571,2.73288235 C12.0593571,1.32320588 10.866,0.176441176 9.39835714,0.176441176 C7.93135714,0.176441176 6.73778571,1.32320588 6.73778571,2.73288235 C6.738,4.14255882 7.93157143,5.28911765 9.39835714,5.28911765 L9.39835714,5.28911765 Z M9.39835714,0.999970588 C10.3932857,0.999970588 11.2022143,1.77738235 11.2022143,2.73288235 C11.2022143,3.68838235 10.3932857,4.46558824 9.39835714,4.46558824 C8.40385714,4.46558824 7.59492857,3.68838235 7.59492857,2.73288235 C7.59514286,1.77717647 8.40407143,0.999970588 9.39835714,0.999970588 L9.39835714,0.999970588 Z" id="Shape"></path>
                                            <path d="M8.41778571,2.30814706 C8.48939538,2.30827705 8.55632023,2.27396293 8.59607143,2.21673529 C8.7750928,1.95930779 9.07611863,1.80480944 9.39835714,1.80497059 C9.51707143,1.80497059 9.61264286,1.71294118 9.61264286,1.59908824 C9.61264286,1.48523529 9.51707143,1.39320588 9.39835714,1.39320588 C8.93310125,1.39291357 8.49844381,1.61593355 8.23992857,1.98758824 C8.19586192,2.05071692 8.19158345,2.13203788 8.22879972,2.19911421 C8.26601599,2.26619054 8.33867147,2.30810811 8.41778571,2.30814706 L8.41778571,2.30814706 Z" id="Shape"></path>
                                            <path d="M14.5401429,6.20158824 C14.3997857,6.06364706 14.2247143,5.98973529 14.0115,5.98973529 C13.8381429,5.98973529 13.6512857,6.03441176 13.4243571,6.13982353 C12.6703822,6.52598042 11.9145167,6.90871997 11.1567857,7.28802941 L11.1672857,7.13361765 C11.1681429,7.12352941 11.1685714,7.09326471 11.1685714,7.08297059 C11.1685714,6.28188235 10.5021429,5.58826471 9.68314286,5.58826471 L1.725,5.58826471 C0.919714286,5.58826471 0.214071429,6.34920588 0.214071429,7.15070588 L0.214071429,12.5320588 C0.214071429,13.3030882 0.892071429,13.8233529 1.725,13.8233529 L9.68314286,13.8233529 C10.5094286,13.8233529 11.1572143,13.2577941 11.1677143,12.4812059 C11.1675,12.4820294 11.1675,12.4830588 11.1672857,12.4816176 L11.145,12.1390294 C11.7143571,12.4132647 12.5989286,12.8538529 13.4192143,13.2689118 C13.4425714,13.2808529 13.464,13.2911471 13.4895,13.2989706 C13.7125714,13.3648529 13.8902143,13.4101471 14.0614286,13.4111765 C14.3667857,13.4089118 14.5521429,13.2654118 14.6421429,13.1457941 C14.7488571,13.0043529 14.7857143,12.8213235 14.7857143,12.5736471 L14.7857143,7.01235294 C14.7857143,6.84826471 14.8075714,6.46223529 14.5401429,6.20158824 Z M13.9540714,12.5647941 C13.8942857,12.5512059 13.8304286,12.5320588 13.7858571,12.5188824 C10.9032857,11.0608235 10.803,11.0583529 10.6757143,11.0583529 C10.5576429,11.0583529 10.4447143,11.0999412 10.3635,11.1827059 C10.2827143,11.2650588 10.2409286,11.3657353 10.248,11.4789706 L10.3112143,12.4746176 C10.305,12.7935294 10.0311429,12.9998235 9.68292857,12.9998235 L1.725,12.9998235 C1.36114286,12.9998235 1.07121429,12.8515882 1.07121429,12.5320588 L1.07121429,7.15070588 C1.07121429,6.80194118 1.39028571,6.41179412 1.725,6.41179412 L1.725,6.41158824 L9.68314286,6.41158824 C10.0193571,6.41158824 10.3039286,6.73441176 10.3112143,7.06979412 L10.2484286,7.959 C10.2400714,8.07285294 10.2812143,8.18547059 10.362,8.26905882 C10.4432143,8.35264706 10.557,8.40020588 10.6759286,8.40020588 C10.8156429,8.40020588 10.8529286,8.39979412 13.8124286,6.87894118 C13.8709286,6.85176471 13.9152857,6.83611765 13.9474286,6.82705882 C13.9525714,6.86391176 13.956,6.91805882 13.9547143,6.99897059 L13.9540714,12.5647941 L13.9540714,12.5647941 Z" id="Shape"></path>
                                            <path d="M4.09671429,6.82335294 L2.27657143,6.82335294 C1.8465,6.82335294 1.49978571,7.33291176 1.49978571,7.71379412 L1.49978571,8.76008824 C1.49984489,8.87379392 1.59583184,8.9659245 1.71417857,8.96586765 C1.8325253,8.96581079 1.92841632,8.87358804 1.92835714,8.75988235 L1.92835714,7.71358824 C1.92835714,7.52191176 2.11992857,7.23532353 2.27657143,7.23532353 L4.09671429,7.23532353 C4.21512019,7.23532353 4.31110714,7.14310077 4.31110714,7.02933824 C4.31110714,6.9155757 4.21512019,6.82335294 4.09671429,6.82335294 L4.09671429,6.82335294 Z" id="Shape"></path>
                                        </g>
                                    </g>
                                    <g id="Group" transform="translate(5.000000, 5.000000)">
                                        <polygon id="Shape" points="0 0 15 0 15 15 0 15"></polygon>
                                    </g>
                                </g>
                            </g>
                        </g>
                    </g>
                </g>
            </g>
        </g>
    </g>
</svg>