<?xml version="1.0" encoding="UTF-8"?>
<svg width="25px" height="25px" viewBox="0 0 25 25" version="1.1" xmlns="http://www.w3.org/2000/svg" xmlns:xlink="http://www.w3.org/1999/xlink">
    <!-- Generator: Sketch 46.2 (44496) - http://www.bohemiancoding.com/sketch -->
    <title>Audio</title>
    <desc>Created with Sketch.</desc>
    <defs></defs>
    <g id="Page-1" stroke="none" stroke-width="1" fill="none" fill-rule="evenodd">
        <g id="Form-Creation-1.1" transform="translate(-29.000000, -491.000000)">
            <g id="Content" transform="translate(-2.000000, 99.000000)">
                <g id="Field-Header">
                    <g id="Advanced-Fields" transform="translate(28.000000, 314.000000)">
                        <g id="Multi-Select" transform="translate(0.000000, 75.000000)">
                            <g id="Audio" transform="translate(3.000000, 3.000000)">
                                <rect id="Rectangle-5" fill-opacity="0.5" fill="#F8E71C" x="0" y="0" width="25" height="25" rx="1"></rect>
                                <g id="Group" transform="translate(3.000000, 4.000000)">
                                    <path d="M9,9.84210526 C10.1821429,9.84210526 11.1357143,8.85105263 11.1357143,7.63157895 L11.1428571,3.21052632 C11.1428571,1.98736842 10.1857143,1 9,1 C7.81785714,1 6.85714286,1.98736842 6.85714286,3.21052632 L6.85714286,7.63157895 C6.85714286,8.85105263 7.81785714,9.84210526 9,9.84210526 Z M12.7857143,7.63157895 C12.7857143,9.84210526 10.975,11.3894737 9,11.3894737 C7.02857143,11.3894737 5.21428571,9.84210526 5.21428571,7.63157895 L4,7.63157895 C4,10.1478947 5.94285714,12.2257895 8.28571429,12.5831579 L8.28571429,15 L9.71428571,15 L9.71428571,12.5831579 C12.0571429,12.2257895 14,10.1478947 14,7.63157895 L12.7857143,7.63157895 Z" id="Shape" fill="#FFFFFF" fill-rule="nonzero"></path>
                                    <polygon id="Shape" points="0 0 18 0 18 18 0 18"></polygon>
                                </g>
                            </g>
                        </g>
                    </g>
                </g>
            </g>
        </g>
    </g>
</svg>