<?xml version="1.0" encoding="UTF-8"?>
<svg width="25px" height="25px" viewBox="0 0 25 25" version="1.1" xmlns="http://www.w3.org/2000/svg" xmlns:xlink="http://www.w3.org/1999/xlink">
    <!-- Generator: Sketch 46.2 (44496) - http://www.bohemiancoding.com/sketch -->
    <title>Date - Time</title>
    <desc>Created with Sketch.</desc>
    <defs></defs>
    <g id="Page-1" stroke="none" stroke-width="1" fill="none" fill-rule="evenodd">
        <g id="Form-Creation-1.1" transform="translate(-31.000000, -565.000000)">
            <g id="Content" transform="translate(-2.000000, 99.000000)">
                <g id="Field-Header">
                    <g id="Advanced-Fields" transform="translate(28.000000, 314.000000)">
                        <g id="DropDown" transform="translate(0.000000, 149.000000)">
                            <g id="Date---Time" transform="translate(5.000000, 3.000000)">
                                <g id="Group-12">
                                    <rect id="Rectangle-5" fill-opacity="0.5" fill="#9013FE" x="0" y="0" width="25" height="25" rx="1"></rect>
                                    <g id="Game,-Schedule,-Calendar,-Deadline,-Timer,-Date,-Time" transform="translate(5.000000, 4.000000)" fill-rule="nonzero" fill="#FFFFFF">
                                        <g id="svg4646">
                                            <g id="layer1" transform="translate(0.000000, 0.350844)">
                                                <path d="M2.92916693,0.199515789 C2.7818896,0.199515789 2.66436213,0.326970458 2.66666667,0.478848896 L2.66666667,1.30826689 L1.06666667,1.30826689 C0.4803424,1.30826689 0,1.80367334 0,2.40843667 L0,3.4946893 L0,4.0726635 L0,11.7598798 C0,12.3645881 0.4803424,12.8600496 1.06666667,12.8600496 L7.60729173,12.8600496 C8.08294027,14.754817 9.74931733,16.1605589 11.7333333,16.1605589 C14.0865888,16.1605589 16.0000043,14.1870194 16,11.7598798 C15.9999728,9.33268523 14.0865664,7.35920068 11.7333333,7.35920068 C11.5523045,7.35920068 11.375152,7.37405297 11.2,7.39660645 L11.2,4.07244346 L11.2,3.49446927 L11.2,2.40821664 C11.2,1.80345331 10.7196571,1.30804686 10.1333333,1.30804686 L8.53333333,1.30804686 L8.53333333,0.478628862 C8.53568,0.323394907 8.41304213,0.196875382 8.26250027,0.199295756 C8.11522293,0.199295756 7.99769547,0.326750424 8,0.478628862 L8,1.30804686 L3.2,1.30804686 L3.2,0.478628862 C3.20234667,0.323394907 3.0797088,0.196875382 2.92916693,0.199295756 L2.92916693,0.199515789 Z M1.06666667,1.85835178 L2.66666667,1.85835178 L2.66666667,2.68457929 C2.66154667,3.05654669 3.20510293,3.05654669 3.2,2.68457929 L3.2,1.85835178 L8,1.85835178 L8,2.68457929 C7.99488,3.05654669 8.53843627,3.05654669 8.53333333,2.68457929 L8.53333333,1.85835178 L10.1333333,1.85835178 C10.4334192,1.85835178 10.6666667,2.0989039 10.6666667,2.40843667 L10.6666667,3.4946893 L0.533333333,3.4946893 L0.533333333,2.40843667 C0.533333333,2.0989039 0.7665808,1.85835178 1.06666667,1.85835178 Z M0.533333333,4.0726635 L10.6666667,4.0726635 L10.6666667,7.5032129 C10.2880715,7.60420849 9.93037707,7.75663701 9.6,7.95444754 L9.6,7.63424312 C9.59998507,7.48236469 9.4806032,7.35925569 9.33333333,7.35920068 L8.26666667,7.35920068 C8.1193968,7.35925569 8.00001493,7.48236469 8,7.63424312 L8,8.7344129 C8.00001493,8.88634635 8.1193968,9.00945535 8.26666667,9.00945535 L8.40625013,9.00945535 C7.81938027,9.7634017 7.4666784,10.7196693 7.46666667,11.7598798 C7.46666613,11.9466886 7.48113067,12.1292618 7.50312533,12.3099647 L1.0666672,12.3099647 C0.766581333,12.3099647 0.533333867,12.0693576 0.533333867,11.7598798 L0.533333333,4.0726635 Z M1.86666667,5.15886112 C1.7193968,5.15891613 1.60001493,5.28202513 1.6,5.43390357 L1.6,6.53407334 C1.60001493,6.68600679 1.7193968,6.80911579 1.86666667,6.80911579 L2.93333333,6.80911579 C3.0806032,6.80911579 3.19998507,6.68600679 3.2,6.53407334 L3.2,5.43390357 C3.19998507,5.28202513 3.0806032,5.15891613 2.93333333,5.15886112 L1.86666667,5.15886112 Z M4,5.15886112 C3.85273013,5.15891613 3.73334827,5.28202513 3.73333333,5.43390357 L3.73333333,6.53407334 C3.73334827,6.68600679 3.85273013,6.80911579 4,6.80911579 L5.06666667,6.80911579 C5.21393653,6.80911579 5.3333184,6.68600679 5.33333333,6.53407334 L5.33333333,5.43390357 C5.3333184,5.28202513 5.21393653,5.15891613 5.06666667,5.15886112 L4,5.15886112 Z M6.13333333,5.15886112 C5.98606347,5.15891613 5.8666816,5.28202513 5.86666667,5.43390357 L5.86666667,6.53407334 C5.8666816,6.68600679 5.98606347,6.80911579 6.13333333,6.80911579 L7.2,6.80911579 C7.34726987,6.80911579 7.46665173,6.68600679 7.46666667,6.53407334 L7.46666667,5.43390357 C7.46665173,5.28202513 7.34726987,5.15891613 7.2,5.15886112 L6.13333333,5.15886112 Z M8.26666667,5.15886112 C8.1193968,5.15891613 8.00001493,5.28202513 8,5.43390357 L8,6.53407334 C8.00001493,6.68600679 8.1193968,6.80911579 8.26666667,6.80911579 L9.33333333,6.80911579 C9.4806032,6.80911579 9.59998507,6.68600679 9.6,6.53407334 L9.6,5.43390357 C9.59998507,5.28202513 9.4806032,5.15891613 9.33333333,5.15886112 L8.26666667,5.15886112 Z M2.13333333,5.70894601 L2.66666667,5.70894601 L2.66666667,6.2590309 L2.13333333,6.2590309 L2.13333333,5.70894601 Z M4.26666667,5.70894601 L4.8,5.70894601 L4.8,6.2590309 L4.26666667,6.2590309 L4.26666667,5.70894601 Z M6.4,5.70894601 L6.93333333,5.70894601 L6.93333333,6.2590309 L6.4,6.2590309 L6.4,5.70894601 Z M8.53333333,5.70894601 L9.06666667,5.70894601 L9.06666667,6.2590309 L8.53333333,6.2590309 L8.53333333,5.70894601 Z M1.86666667,7.35920068 C1.7193968,7.35925569 1.60001493,7.48236469 1.6,7.63424312 L1.6,8.7344129 C1.60001493,8.88634635 1.7193968,9.00945535 1.86666667,9.00945535 L2.93333333,9.00945535 C3.0806032,9.00945535 3.19998507,8.88634635 3.2,8.7344129 L3.2,7.63424312 C3.19998507,7.48236469 3.0806032,7.35925569 2.93333333,7.35920068 L1.86666667,7.35920068 Z M4,7.35920068 C3.85273013,7.35925569 3.73334827,7.48236469 3.73333333,7.63424312 L3.73333333,8.7344129 C3.73334827,8.88634635 3.85273013,9.00945535 4,9.00945535 L5.06666667,9.00945535 C5.21393653,9.00945535 5.3333184,8.88634635 5.33333333,8.7344129 L5.33333333,7.63424312 C5.3333184,7.48236469 5.21393653,7.35925569 5.06666667,7.35920068 L4,7.35920068 Z M6.13333333,7.35920068 C5.98606347,7.35925569 5.8666816,7.48236469 5.86666667,7.63424312 L5.86666667,8.7344129 C5.8666816,8.88634635 5.98606347,9.00945535 6.13333333,9.00945535 L7.2,9.00945535 C7.34726987,9.00945535 7.46665173,8.88634635 7.46666667,8.7344129 L7.46666667,7.63424312 C7.46665173,7.48236469 7.34726987,7.35925569 7.2,7.35920068 L6.13333333,7.35920068 Z M2.13333333,7.90928557 L2.66666667,7.90928557 L2.66666667,8.45937046 L2.13333333,8.45937046 L2.13333333,7.90928557 Z M4.26666667,7.90928557 L4.8,7.90928557 L4.8,8.45937046 L4.26666667,8.45937046 L4.26666667,7.90928557 Z M6.4,7.90928557 L6.93333333,7.90928557 L6.93333333,8.45937046 L6.4,8.45937046 L6.4,7.90928557 Z M8.53333333,7.90928557 L9.06666667,7.90928557 L9.06666667,8.32724007 C9.01548267,8.3695966 8.96692,8.41464856 8.91770827,8.45937046 C8.90695627,8.45937046 8.89617227,8.45937046 8.88541493,8.45937046 L8.53333173,8.45937046 L8.53333333,7.90928557 Z M11.7333333,7.90928557 C13.7983344,7.90928557 15.4666427,9.63000611 15.4666667,11.7598798 C15.4666704,13.8897535 13.7983536,15.610474 11.7333333,15.610474 C9.66831307,15.610474 7.99999627,13.8897535 8,11.7598798 C8.000024,9.63000611 9.66833227,7.90928557 11.7333333,7.90928557 Z M11.4666667,8.45937046 L11.4666667,10.9852503 C11.1578677,11.099943 10.9333648,11.4040849 10.9333333,11.7598798 C10.9333296,12.2123246 11.294664,12.5850071 11.7333333,12.5850071 C12.077968,12.5850071 12.3718821,12.3529263 12.4833333,12.0349222 L13.8666667,12.0349222 L13.8666667,11.4848374 L12.4833333,11.4848374 C12.402328,11.2528115 12.2249376,11.0688081 12,10.9852503 L12,8.45937046 L11.4666667,8.45937046 Z M1.86666667,9.55954024 C1.7193968,9.55959525 1.60001493,9.68270424 1.6,9.83458268 L1.6,10.9347525 C1.60001493,11.0866859 1.7193968,11.2097949 1.86666667,11.2097949 L2.93333333,11.2097949 C3.0806032,11.2097949 3.19998507,11.0866859 3.2,10.9347525 L3.2,9.83458268 C3.19998507,9.68270424 3.0806032,9.55959525 2.93333333,9.55954024 L1.86666667,9.55954024 Z M4,9.55954024 C3.85273013,9.55959525 3.73334827,9.68270424 3.73333333,9.83458268 L3.73333333,10.9347525 C3.73334827,11.0866859 3.85273013,11.2097949 4,11.2097949 L5.06666667,11.2097949 C5.21393653,11.2097949 5.3333184,11.0866859 5.33333333,10.9347525 L5.33333333,9.83458268 C5.3333184,9.68270424 5.21393653,9.55959525 5.06666667,9.55954024 L4,9.55954024 Z M6.13333333,9.55954024 C5.98606347,9.55959525 5.8666816,9.68270424 5.86666667,9.83458268 L5.86666667,10.9347525 C5.8666816,11.0866859 5.98606347,11.2097949 6.13333333,11.2097949 L7.2,11.2097949 C7.34726987,11.2097949 7.46665173,11.0866859 7.46666667,10.9347525 L7.46666667,9.83458268 C7.46665173,9.68270424 7.34726987,9.55959525 7.2,9.55954024 L6.13333333,9.55954024 Z M2.13333333,10.1096251 L2.66666667,10.1096251 L2.66666667,10.65971 L2.13333333,10.65971 L2.13333333,10.1096251 Z M4.26666667,10.1096251 L4.8,10.1096251 L4.8,10.65971 L4.26666667,10.65971 L4.26666667,10.1096251 Z M6.4,10.1096251 L6.93333333,10.1096251 L6.93333333,10.65971 L6.4,10.65971 L6.4,10.1096251 Z M11.7333333,11.4848374 C11.8837552,11.4848374 11.9999861,11.6047008 12,11.7598798 C12.0000011,11.9150037 11.8837664,12.0349222 11.7333333,12.0349222 C11.5829003,12.0349222 11.4666656,11.9150037 11.4666667,11.7598798 C11.4666805,11.6047008 11.582912,11.4848374 11.7333333,11.4848374 Z" id="rect4182"></path>
                                            </g>
                                        </g>
                                    </g>
                                </g>
                            </g>
                        </g>
                    </g>
                </g>
            </g>
        </g>
    </g>
</svg>