<?xml version="1.0" encoding="UTF-8"?>
<svg width="25px" height="25px" viewBox="0 0 25 25" version="1.1" xmlns="http://www.w3.org/2000/svg" xmlns:xlink="http://www.w3.org/1999/xlink">
    <!-- Generator: Sketch 46.2 (44496) - http://www.bohemiancoding.com/sketch -->
    <title>File Upload</title>
    <desc>Created with Sketch.</desc>
    <defs></defs>
    <g id="Page-1" stroke="none" stroke-width="1" fill="none" fill-rule="evenodd">
        <g id="Form-Creation-1.1" transform="translate(-30.000000, -528.000000)">
            <g id="Content" transform="translate(-2.000000, 99.000000)">
                <g id="Field-Header">
                    <g id="Advanced-Fields" transform="translate(28.000000, 314.000000)">
                        <g id="Radio" transform="translate(0.000000, 112.000000)">
                            <g id="File-Upload" transform="translate(4.000000, 3.000000)">
                                <g id="Group-11">
                                    <rect id="Rectangle-5" fill-opacity="0.5" fill="#9B9B9B" x="0" y="0" width="25" height="25" rx="1"></rect>
                                    <g id="Attachment" transform="translate(6.000000, 4.000000)" fill-rule="nonzero" fill="#FFFFFF">
                                        <g id="Group">
                                            <path d="M4.56521739,12.1875 C4.07826087,12.1875 3.65217391,12 3.28695652,11.625 C2.55652174,10.875 2.55652174,9.6875 3.28695652,9 C3.53043478,8.75 3.89565217,8.75 4.13913043,9 C4.3826087,9.25 4.3826087,9.625 4.13913043,9.875 C3.89565217,10.125 3.89565217,10.5 4.13913043,10.75 C4.3826087,11 4.74782609,11 4.99130435,10.75 C5.23478261,10.5 5.6,10.5 5.84347826,10.75 C6.08695652,11 6.08695652,11.375 5.84347826,11.625 C5.47826087,12 4.99130435,12.1875 4.56521739,12.1875 L4.56521739,12.1875 Z M12.2956522,8.3125 C12.1130435,8.3125 11.9913043,8.25 11.8695652,8.125 C11.626087,7.875 11.626087,7.5 11.8695652,7.25 C12.6,6.5 12.6,5.3125 11.8695652,4.625 C11.2,3.9375 9.9826087,3.9375 9.31304348,4.625 C9.06956522,4.875 8.70434783,4.875 8.46086957,4.625 C8.2173913,4.375 8.2173913,4 8.46086957,3.75 C9.00869565,3.125 9.73913043,2.8125 10.5913043,2.8125 C11.4434783,2.8125 12.173913,3.125 12.7217391,3.6875 C13.8782609,4.875 13.8782609,6.875 12.7217391,8.125 C12.6,8.25 12.4173913,8.3125 12.2956522,8.3125 Z" id="Shape"></path>
                                            <path d="M3.65217391,10.0625 C3.46956522,10.0625 3.34782609,10 3.22608696,9.875 C2.9826087,9.625 2.9826087,9.25 3.22608696,9 L8.4,3.6875 C8.64347826,3.4375 9.00869565,3.4375 9.25217391,3.6875 C9.49565217,3.9375 9.49565217,4.3125 9.25217391,4.5625 L4.07826087,9.875 C4.0173913,10 3.83478261,10.0625 3.65217391,10.0625 Z M7.12173913,13.625 C6.93913043,13.625 6.8173913,13.5625 6.69565217,13.4375 C6.45217391,13.1875 6.45217391,12.8125 6.69565217,12.5625 L11.8695652,7.25 C12.1130435,7 12.4782609,7 12.7217391,7.25 C12.9652174,7.5 12.9652174,7.875 12.7217391,8.125 L7.54782609,13.4375 C7.42608696,13.5625 7.30434783,13.625 7.12173913,13.625 Z M5.4173913,11.8125 C5.23478261,11.8125 5.11304348,11.75 4.99130435,11.625 C4.74782609,11.375 4.74782609,11 4.99130435,10.75 L10.1652174,5.4375 C10.4086957,5.1875 10.773913,5.1875 11.0173913,5.4375 C11.2608696,5.6875 11.2608696,6.0625 11.0173913,6.3125 L5.84347826,11.625 C5.72173913,11.8125 5.53913043,11.8125 5.4173913,11.8125 Z M1.94782609,8.3125 C1.76521739,8.3125 1.64347826,8.25 1.52173913,8.125 C1.27826087,7.875 1.27826087,7.5 1.52173913,7.25 L8.4,0.1875 C8.64347826,-0.0625 9.00869565,-0.0625 9.25217391,0.1875 C9.49565217,0.4375 9.49565217,0.8125 9.25217391,1.0625 L2.37391304,8.125 C2.25217391,8.25 2.13043478,8.3125 1.94782609,8.3125 Z" id="Shape"></path>
                                            <path d="M4.56521739,14.6875 C3.46956522,14.6875 2.37391304,14.25 1.5826087,13.4375 C0.791304348,12.625 0.365217391,11.5 0.365217391,10.375 C0.365217391,9.25 0.791304348,8.125 1.5826087,7.3125 C1.82608696,7.0625 2.19130435,7.0625 2.43478261,7.3125 C2.67826087,7.5625 2.67826087,7.9375 2.43478261,8.1875 C1.88695652,8.75 1.52173913,9.5625 1.52173913,10.375 C1.52173913,11.1875 1.82608696,12 2.43478261,12.5625 C3.59130435,13.75 5.53913043,13.75 6.75652174,12.5625 C7,12.3125 7.36521739,12.3125 7.60869565,12.5625 C7.85217391,12.8125 7.85217391,13.1875 7.60869565,13.4375 C6.69565217,14.3125 5.66086957,14.6875 4.56521739,14.6875 Z" id="Shape"></path>
                                        </g>
                                    </g>
                                </g>
                            </g>
                        </g>
                    </g>
                </g>
            </g>
        </g>
    </g>
</svg>