<?xml version="1.0" encoding="UTF-8"?>
<svg width="25px" height="25px" viewBox="0 0 25 25" version="1.1" xmlns="http://www.w3.org/2000/svg" xmlns:xlink="http://www.w3.org/1999/xlink">
    <!-- Generator: Sketch 46.2 (44496) - http://www.bohemiancoding.com/sketch -->
    <title>Gender</title>
    <desc>Created with Sketch.</desc>
    <defs></defs>
    <g id="Page-1" stroke="none" stroke-width="1" fill="none" fill-rule="evenodd">
        <g id="Form-Creation-1.1" transform="translate(-194.000000, -231.000000)">
            <g id="Fields" transform="translate(24.000000, 144.000000)">
                <g id="Single-Line" transform="translate(166.000000, 84.000000)">
                    <g id="Gender" transform="translate(1.000000, 0.000000)">
                        <rect id="Rectangle-5" fill-opacity="0.7" fill="#BD10E0" x="3" y="3" width="25" height="25" rx="1"></rect>
                        <g id="Sex" fill-rule="nonzero" fill="#FFFFFF">
                            <g id="svg4422">
                                <g id="layer1" transform="translate(0.000000, 0.375176)">
                                    <g id="g4520" transform="translate(15.202222, 14.669399) rotate(-45.000000) translate(-15.202222, -14.669399) translate(5.002222, 4.375282)">
                                        <path d="M10.5229577,2.71357578 C9.94625872,2.67332161 9.35246453,2.79569361 8.81553593,3.09960519 C7.47137993,3.86042278 6.95467553,5.49650542 7.58038013,6.85534953 L5.48858298,8.03986247 L4.88858298,7.02079071 C4.84130169,6.93792303 4.7561263,6.88252772 4.65986826,6.87204207 C4.56361022,6.86155641 4.46810911,6.89727014 4.4034267,6.9679413 C4.31589555,7.06385406 4.30212776,7.20441788 4.36944234,7.31490836 L4.96944234,8.33398012 L3.66983298,9.06927423 C3.64377873,9.0837335 3.62007868,9.10193454 3.59952048,9.12327247 C3.49786196,9.22990944 3.49134183,9.3935025 3.58420315,9.50759117 C3.67706447,9.62167984 3.84121565,9.65175099 3.96983298,9.57823541 L5.26944234,8.84294129 L5.86944234,9.86201305 C5.92067665,9.95747407 6.02109748,10.0177837 6.13111535,10.0191656 C6.24113322,10.0205476 6.34309716,9.96278019 6.39680936,9.86863744 C6.45052155,9.77449468 6.44736456,9.65908054 6.38858298,9.56789541 L5.78858298,8.54882365 L7.88038013,7.36546012 C8.76792893,8.57586012 10.4715101,8.95455835 11.8155359,8.19381482 C13.2473039,7.38334189 13.7402279,5.57984477 12.9135827,4.17612178 C12.3969287,3.29879566 11.4841235,2.78066614 10.5229577,2.71357578 Z M10.4831141,3.29836437 C11.2511237,3.35107937 11.9779427,3.76497837 12.3932705,4.47023943 C13.0577945,5.59865783 12.6665153,7.03336483 11.5155359,7.68485306 C10.3645571,8.33634129 8.90115353,7.95159894 8.23663013,6.82318071 C7.57214753,5.69480454 7.96455713,4.26120378 9.11553593,3.60971549 C9.54715313,3.36540755 10.0223087,3.26673543 10.4831141,3.29836437 Z M14.2448327,10.0309013 C14.1636659,10.0327199 14.0867158,10.06671 14.0315519,10.1251107 C13.9597055,10.2012716 13.9340924,10.3089046 13.9641448,10.4083725 C13.9941972,10.5078404 14.0754709,10.5844335 14.1780359,10.6099454 L15.7963955,11.0350372 L12.5139737,12.8939525 C11.6265881,11.682933 9.92313352,11.3023936 8.57881733,12.0633001 C7.14701093,12.8737272 6.65412833,14.6772672 7.48077053,16.080993 C8.30741693,17.4847148 10.1470073,17.9679407 11.5788173,17.1575095 C12.9226289,16.3968254 13.4390189,14.761576 12.8139737,13.4029142 L16.0963955,11.5451472 L15.6628019,13.1317742 C15.620086,13.2888175 15.7153129,13.4500753 15.8754971,13.4919536 C16.0356813,13.5338319 16.2001642,13.4404722 16.2428801,13.2834289 L16.8569423,11.0350372 C16.8596349,11.0270965 16.8619808,11.0190468 16.8639737,11.0109101 C16.8643769,11.0093815 16.8647675,11.0078496 16.8651455,11.0063148 C16.8670497,10.9983399 16.8686134,10.9902906 16.8698327,10.9821878 C16.8702359,10.9806591 16.8706265,10.9791273 16.8710045,10.9775925 C16.8721235,10.9695851 16.8729056,10.9615359 16.8733487,10.9534654 C16.8742552,10.9435342 16.8746463,10.9335643 16.8745205,10.9235942 C16.8745327,10.9220623 16.8745327,10.9205303 16.8745205,10.9189983 C16.8737217,10.9105274 16.8725486,10.9020944 16.8710045,10.8937231 C16.8710114,10.892574 16.8710114,10.891425 16.8710045,10.890276 C16.8698181,10.8817878 16.8682542,10.8733545 16.8663173,10.8650001 C16.8659339,10.8638489 16.8655433,10.8627001 16.8651455,10.8615536 C16.862767,10.8533994 16.86003,10.8453497 16.8569423,10.8374272 C16.8565643,10.8358921 16.8561737,10.8343601 16.8557705,10.8328313 C16.8529755,10.8250464 16.8498478,10.8173802 16.8463955,10.8098531 C16.8456226,10.8086988 16.8448413,10.80755 16.8440519,10.8064066 C16.8404885,10.7985838 16.8365784,10.7909173 16.8323327,10.7834289 C16.8315598,10.7822745 16.8307785,10.7811255 16.8299891,10.7799819 C16.8256008,10.7728975 16.8209093,10.765998 16.8159269,10.7593019 C16.8147646,10.7581436 16.8135926,10.7569947 16.8124109,10.7558554 C16.8072302,10.7491172 16.8017564,10.7426006 16.7960045,10.7363236 C16.7952276,10.7355535 16.7944464,10.7347876 16.7936609,10.734026 C16.7876901,10.7276308 16.781434,10.7214973 16.7749109,10.7156436 C16.7737446,10.7148697 16.7725728,10.7141038 16.7713955,10.713346 C16.7649932,10.7077069 16.7583464,10.7023404 16.7514737,10.6972613 C16.7503072,10.6964873 16.7491352,10.6957214 16.7479577,10.6949636 C16.7411277,10.6900788 16.7340902,10.685479 16.7268641,10.6811766 C16.7253086,10.6803973 16.7237461,10.6796314 16.7221769,10.6788789 C16.7149219,10.6747459 16.7074934,10.6709129 16.6999109,10.6673901 C16.6987415,10.6670001 16.6975697,10.6666171 16.6963955,10.6662413 C16.6936787,10.6650525 16.690944,10.6639033 16.6881923,10.6627942 C16.681652,10.6598807 16.6750072,10.6571984 16.6682705,10.6547525 C16.6655473,10.6539483 16.6628127,10.6531822 16.6600673,10.6524542 C16.6573441,10.6516503 16.6546095,10.6508843 16.6518641,10.6501566 L14.3338955,10.0412413 C14.304904,10.0334394 14.274881,10.0299538 14.2448327,10.0309013 L14.2448327,10.0309013 Z M10.2463955,12.2620589 C11.0144045,12.3147748 11.7423953,12.728673 12.1577237,13.4339342 C12.8222123,14.5623042 12.4297967,15.9970601 11.2788173,16.6485483 C10.1278385,17.3000366 8.66440013,16.9152448 7.99991093,15.7868754 C7.33535213,14.6584077 7.72784213,13.2248948 8.87881733,12.5734101 C9.31043273,12.3291036 9.78559012,12.2304301 10.2463955,12.2620589 Z" id="circle4633" transform="translate(10.196615, 10.128376) rotate(45.000000) translate(-10.196615, -10.128376) "></path>
                                    </g>
                                </g>
                            </g>
                        </g>
                    </g>
                </g>
            </g>
        </g>
    </g>
</svg>