<?xml version="1.0" encoding="UTF-8"?>
<svg width="25px" height="25px" viewBox="0 0 25 25" version="1.1" xmlns="http://www.w3.org/2000/svg" xmlns:xlink="http://www.w3.org/1999/xlink">
    <!-- Generator: Sketch 46.2 (44496) - http://www.bohemiancoding.com/sketch -->
    <title>Radio</title>
    <desc>Created with Sketch.</desc>
    <defs></defs>
    <g id="Page-1" stroke="none" stroke-width="1" fill="none" fill-rule="evenodd">
        <g id="Form-Creation-1.1" transform="translate(-28.000000, -259.000000)">
            <g id="Fields" transform="translate(24.000000, 144.000000)">
                <g id="Radio" transform="translate(0.000000, 112.000000)">
                    <g id="Radio-Button" transform="translate(4.000000, 3.000000)">
                        <g id="Radio">
                            <rect id="Rectangle-5" fill-opacity="0.5" fill="#BD10E0" x="0" y="0" width="25" height="25" rx="1"></rect>
                            <g id="Layer_1" transform="translate(5.000000, 5.000000)" fill-rule="nonzero" fill="#FFFFFF">
                                <path d="M7,3.5 C5.075,3.5 3.5,5.075 3.5,7 C3.5,8.925 5.075,10.5 7,10.5 C8.925,10.5 10.5,8.925 10.5,7 C10.5,5.075 8.925,3.5 7,3.5 Z M7,0 C3.15003365,0 0,3.15003365 0,7 C0,10.8499663 3.15003365,14 7,14 C10.8499663,14 14,10.8499663 14,7 C14,3.15003365 10.8499663,0 7,0 Z M7,12.6 C3.92006731,12.6 1.4,10.079899 1.4,7 C1.4,3.92010096 3.92006731,1.4 7,1.4 C10.0799327,1.4 12.6,3.92006731 12.6,7 C12.6,10.0799327 10.0799327,12.6 7,12.6 Z" id="Icon_21_"></path>
                            </g>
                        </g>
                    </g>
                </g>
            </g>
        </g>
    </g>
</svg>