<?xml version="1.0" encoding="UTF-8"?>
<svg width="25px" height="25px" viewBox="0 0 25 25" version="1.1" xmlns="http://www.w3.org/2000/svg" xmlns:xlink="http://www.w3.org/1999/xlink">
    <!-- Generator: Sketch 46.2 (44496) - http://www.bohemiancoding.com/sketch -->
    <title>Yes or No</title>
    <desc>Created with Sketch.</desc>
    <defs></defs>
    <g id="Page-1" stroke="none" stroke-width="1" fill="none" fill-rule="evenodd">
        <g id="Form-Creation-1.1" transform="translate(-194.000000, -361.000000)">
            <g id="Fields" transform="translate(24.000000, 144.000000)">
                <g id="Single-Line" transform="translate(166.000000, 214.000000)">
                    <g id="Yes-or-No" transform="translate(4.000000, 3.000000)">
                        <rect id="Rectangle-5" fill-opacity="0.7" fill="#417505" x="0" y="0" width="25" height="25" rx="1"></rect>
                        <g id="Yes" transform="translate(5.000000, 5.000000)" fill-rule="nonzero" fill="#FFFFFF">
                            <g id="Group">
                                <path d="M7.5,15 C3.375,15 0,11.625 0,7.5 C0,3.375 3.375,0 7.5,0 C11.625,0 15,3.375 15,7.5 C15,11.625 11.625,15 7.5,15 Z M7.5,1.25 C4.0625,1.25 1.25,4.0625 1.25,7.5 C1.25,10.9375 4.0625,13.75 7.5,13.75 C10.9375,13.75 13.75,10.9375 13.75,7.5 C13.75,4.0625 10.9375,1.25 7.5,1.25 Z" id="Shape"></path>
                                <path d="M6.875,10 C6.6875,10 6.5625,9.9375 6.4375,9.8125 L4.5625,7.9375 C4.3125,7.6875 4.3125,7.3125 4.5625,7.0625 C4.8125,6.8125 5.1875,6.8125 5.4375,7.0625 L7.3125,8.9375 C7.5625,9.1875 7.5625,9.5625 7.3125,9.8125 C7.1875,9.9375 7.0625,10 6.875,10 L6.875,10 Z" id="Shape"></path>
                                <path d="M6.875,10 C6.6875,10 6.5625,9.9375 6.4375,9.8125 C6.1875,9.5625 6.1875,9.1875 6.4375,8.9375 L10.1875,5.1875 C10.4375,4.9375 10.8125,4.9375 11.0625,5.1875 C11.3125,5.4375 11.3125,5.8125 11.0625,6.0625 L7.3125,9.8125 C7.1875,9.9375 7.0625,10 6.875,10 Z" id="Shape"></path>
                            </g>
                        </g>
                    </g>
                </g>
            </g>
        </g>
    </g>
</svg>