<?xml version="1.0" encoding="utf-8"?>
<!-- Svg Vector Icons : http://www.onlinewebfonts.com/icon -->
<!DOCTYPE svg PUBLIC "-//W3C//DTD SVG 1.1//EN" "http://www.w3.org/Graphics/SVG/1.1/DTD/svg11.dtd">
<svg version="1.1" xmlns="http://www.w3.org/2000/svg" xmlns:xlink="http://www.w3.org/1999/xlink" x="0px" y="0px" viewBox="0 0 1000 1000" enable-background="new 0 0 1000 1000" xml:space="preserve">
<metadata> Svg Vector Icons : http://www.onlinewebfonts.com/icon </metadata>
<g><path d="M975,817.4l-412.8-715c-12.9-22.4-36.8-36.1-62.6-36.1c-25.8,0-49.7,13.8-62.6,36.1L19.7,825.3c-12.9,22.4-12.9,49.9,0,72.3c12.9,22.4,36.8,36.1,62.6,36.1H917c0.2,0,0.5,0,0.7,0c40,0,72.3-32.3,72.3-72.3C990,844.8,984.4,829.6,975,817.4z M527,847.2c-7.5,7.6-16.6,11.4-27.2,11.4c-10.7,0-19.8-3.8-27.4-11.4c-7.6-7.6-11.4-16.8-11.4-27.4c0-10.3,3.8-19.3,11.4-26.8c7.6-7.5,16.7-11.2,27.4-11.2c10.6,0,19.7,3.7,27.2,11.2c7.5,7.5,11.2,16.4,11.2,26.8C538.2,830.4,534.5,839.6,527,847.2z M537.8,442.7L506.7,724h-13.4l-30.6-281.4c-1.1-12.4-1.7-21.6-1.7-27.6c0-14.4,3.8-26,11.4-34.9c7.6-8.9,16.9-13.4,27.8-13.4c10.9,0,20.1,4.5,27.6,13.4c7.5,8.9,11.2,22,11.2,39.3C539,424.8,538.6,432.6,537.8,442.7z"/></g>
</svg>
